<mxfile host="Electron" agent="Mozilla/5.0 (X11; Linux x86_64) AppleWebKit/537.36 (KHTML, like Gecko) draw.io/26.1.1 Chrome/134.0.6998.205 Electron/35.7.5 Safari/537.36" version="26.1.1">
  <diagram name="Page-1" id="6E7fNVvYDc0_ghVFEg8w">
    <mxGraphModel dx="78" dy="353" grid="1" gridSize="10" guides="1" tooltips="1" connect="1" arrows="1" fold="1" page="1" pageScale="1" pageWidth="160" pageHeight="120" math="0" shadow="0">
      <root>
        <mxCell id="0" />
        <mxCell id="1" parent="0" />
        <mxCell id="AcgkzLIzpBCBmMoUSAvv-37" value="" style="group" parent="1" vertex="1" connectable="0">
          <mxGeometry x="520" width="40" height="120" as="geometry" />
        </mxCell>
        <mxCell id="AcgkzLIzpBCBmMoUSAvv-38" value="" style="ellipse;whiteSpace=wrap;html=1;fillColor=none;" parent="AcgkzLIzpBCBmMoUSAvv-37" vertex="1">
          <mxGeometry width="40" height="120" as="geometry" />
        </mxCell>
        <mxCell id="AcgkzLIzpBCBmMoUSAvv-39" value="" style="ellipse;whiteSpace=wrap;html=1;fillColor=#000000;strokeColor=default;align=center;verticalAlign=middle;fontFamily=Helvetica;fontSize=12;fontColor=default;" parent="AcgkzLIzpBCBmMoUSAvv-37" vertex="1">
          <mxGeometry x="15" y="70" width="10" height="10" as="geometry" />
        </mxCell>
        <mxCell id="AcgkzLIzpBCBmMoUSAvv-40" value="" style="ellipse;whiteSpace=wrap;html=1;fillColor=#000000;strokeColor=default;align=center;verticalAlign=middle;fontFamily=Helvetica;fontSize=12;fontColor=default;" parent="AcgkzLIzpBCBmMoUSAvv-37" vertex="1">
          <mxGeometry x="15" y="100" width="10" height="10" as="geometry" />
        </mxCell>
        <mxCell id="AcgkzLIzpBCBmMoUSAvv-41" value="" style="ellipse;whiteSpace=wrap;html=1;fillColor=#000000;strokeColor=default;align=center;verticalAlign=middle;fontFamily=Helvetica;fontSize=12;fontColor=default;" parent="AcgkzLIzpBCBmMoUSAvv-37" vertex="1">
          <mxGeometry x="15" y="10" width="10" height="10" as="geometry" />
        </mxCell>
        <mxCell id="AcgkzLIzpBCBmMoUSAvv-42" value="" style="ellipse;whiteSpace=wrap;html=1;fillColor=#000000;strokeColor=default;align=center;verticalAlign=middle;fontFamily=Helvetica;fontSize=12;fontColor=default;" parent="AcgkzLIzpBCBmMoUSAvv-37" vertex="1">
          <mxGeometry x="15" y="40" width="10" height="10" as="geometry" />
        </mxCell>
        <mxCell id="AcgkzLIzpBCBmMoUSAvv-47" value="" style="group" parent="1" vertex="1" connectable="0">
          <mxGeometry x="570" y="40" width="40" height="40" as="geometry" />
        </mxCell>
        <mxCell id="xmiN7CabPeekdp6MZh7b-2" value="" style="group" vertex="1" connectable="0" parent="AcgkzLIzpBCBmMoUSAvv-47">
          <mxGeometry width="40" height="40" as="geometry" />
        </mxCell>
        <mxCell id="AcgkzLIzpBCBmMoUSAvv-43" value="" style="ellipse;whiteSpace=wrap;html=1;fillColor=none;" parent="xmiN7CabPeekdp6MZh7b-2" vertex="1">
          <mxGeometry width="40" height="40" as="geometry" />
        </mxCell>
        <mxCell id="AcgkzLIzpBCBmMoUSAvv-44" value="" style="ellipse;whiteSpace=wrap;html=1;fillColor=#000000;strokeColor=default;align=center;verticalAlign=middle;fontFamily=Helvetica;fontSize=12;fontColor=default;" parent="xmiN7CabPeekdp6MZh7b-2" vertex="1">
          <mxGeometry x="15" y="15" width="10" height="10" as="geometry" />
        </mxCell>
        <mxCell id="xmiN7CabPeekdp6MZh7b-12" value="" style="endArrow=none;dashed=1;html=1;rounded=0;entryX=0;entryY=0.5;entryDx=0;entryDy=0;exitX=0;exitY=0.5;exitDx=0;exitDy=0;curved=1;strokeColor=#0000FF;strokeWidth=2;" edge="1" parent="1">
          <mxGeometry width="50" height="50" relative="1" as="geometry">
            <mxPoint x="510" y="60" as="sourcePoint" />
            <mxPoint x="510" y="15" as="targetPoint" />
            <Array as="points">
              <mxPoint x="490" y="40" />
            </Array>
          </mxGeometry>
        </mxCell>
        <mxCell id="AcgkzLIzpBCBmMoUSAvv-22" value="" style="group" parent="1" vertex="1" connectable="0">
          <mxGeometry x="350" width="40" height="120" as="geometry" />
        </mxCell>
        <mxCell id="AcgkzLIzpBCBmMoUSAvv-23" value="" style="ellipse;whiteSpace=wrap;html=1;fillColor=none;" parent="AcgkzLIzpBCBmMoUSAvv-22" vertex="1">
          <mxGeometry width="40" height="120" as="geometry" />
        </mxCell>
        <mxCell id="AcgkzLIzpBCBmMoUSAvv-24" value="" style="ellipse;whiteSpace=wrap;html=1;fillColor=#000000;strokeColor=default;align=center;verticalAlign=middle;fontFamily=Helvetica;fontSize=12;fontColor=default;" parent="AcgkzLIzpBCBmMoUSAvv-22" vertex="1">
          <mxGeometry x="15" y="70" width="10" height="10" as="geometry" />
        </mxCell>
        <mxCell id="AcgkzLIzpBCBmMoUSAvv-25" value="" style="ellipse;whiteSpace=wrap;html=1;fillColor=#000000;strokeColor=default;align=center;verticalAlign=middle;fontFamily=Helvetica;fontSize=12;fontColor=default;" parent="AcgkzLIzpBCBmMoUSAvv-22" vertex="1">
          <mxGeometry x="15" y="100" width="10" height="10" as="geometry" />
        </mxCell>
        <mxCell id="AcgkzLIzpBCBmMoUSAvv-26" value="" style="ellipse;whiteSpace=wrap;html=1;fillColor=#000000;strokeColor=default;align=center;verticalAlign=middle;fontFamily=Helvetica;fontSize=12;fontColor=default;" parent="AcgkzLIzpBCBmMoUSAvv-22" vertex="1">
          <mxGeometry x="15" y="10" width="10" height="10" as="geometry" />
        </mxCell>
        <mxCell id="AcgkzLIzpBCBmMoUSAvv-27" value="" style="ellipse;whiteSpace=wrap;html=1;fillColor=#000000;strokeColor=default;align=center;verticalAlign=middle;fontFamily=Helvetica;fontSize=12;fontColor=default;" parent="AcgkzLIzpBCBmMoUSAvv-22" vertex="1">
          <mxGeometry x="15" y="40" width="10" height="10" as="geometry" />
        </mxCell>
        <mxCell id="AcgkzLIzpBCBmMoUSAvv-31" value="" style="endArrow=none;dashed=1;html=1;rounded=0;entryX=0;entryY=0.5;entryDx=0;entryDy=0;exitX=0;exitY=0.5;exitDx=0;exitDy=0;curved=1;strokeColor=#0000FF;strokeWidth=2;" parent="1" source="AcgkzLIzpBCBmMoUSAvv-19" target="AcgkzLIzpBCBmMoUSAvv-20" edge="1">
          <mxGeometry width="50" height="50" relative="1" as="geometry">
            <mxPoint x="300" y="70" as="sourcePoint" />
            <mxPoint x="350" y="20" as="targetPoint" />
            <Array as="points">
              <mxPoint x="320" y="40" />
            </Array>
          </mxGeometry>
        </mxCell>
        <mxCell id="AcgkzLIzpBCBmMoUSAvv-32" value="" style="endArrow=none;dashed=1;html=1;rounded=0;entryX=0.5;entryY=0;entryDx=0;entryDy=0;exitX=1;exitY=0.5;exitDx=0;exitDy=0;curved=1;strokeColor=#0000FF;strokeWidth=2;" parent="1" source="AcgkzLIzpBCBmMoUSAvv-20" target="AcgkzLIzpBCBmMoUSAvv-30" edge="1">
          <mxGeometry width="50" height="50" relative="1" as="geometry">
            <mxPoint x="350" y="70" as="sourcePoint" />
            <mxPoint x="350" y="25" as="targetPoint" />
            <Array as="points">
              <mxPoint x="430" y="10" />
            </Array>
          </mxGeometry>
        </mxCell>
        <mxCell id="AcgkzLIzpBCBmMoUSAvv-19" value="" style="ellipse;whiteSpace=wrap;html=1;fillColor=none;strokeColor=#FF0000;strokeWidth=2;" parent="1" vertex="1">
          <mxGeometry x="340" y="30" width="60" height="60" as="geometry" />
        </mxCell>
        <mxCell id="AcgkzLIzpBCBmMoUSAvv-20" value="" style="ellipse;whiteSpace=wrap;html=1;fillColor=none;strokeColor=#FF0000;strokeWidth=2;" parent="1" vertex="1">
          <mxGeometry x="340" width="60" height="30" as="geometry" />
        </mxCell>
        <mxCell id="AcgkzLIzpBCBmMoUSAvv-21" value="" style="ellipse;whiteSpace=wrap;html=1;fillColor=none;strokeColor=#FF0000;strokeWidth=2;" parent="1" vertex="1">
          <mxGeometry x="340" y="90" width="60" height="30" as="geometry" />
        </mxCell>
        <mxCell id="AcgkzLIzpBCBmMoUSAvv-30" value="" style="ellipse;whiteSpace=wrap;html=1;fillColor=none;strokeColor=#FF0000;strokeWidth=2;" parent="1" vertex="1">
          <mxGeometry x="410" y="30" width="60" height="60" as="geometry" />
        </mxCell>
        <mxCell id="AcgkzLIzpBCBmMoUSAvv-34" value="" style="ellipse;whiteSpace=wrap;html=1;fillColor=none;strokeColor=#FF0000;strokeWidth=2;" parent="1" vertex="1">
          <mxGeometry x="510" y="30" width="110" height="60" as="geometry" />
        </mxCell>
        <mxCell id="AcgkzLIzpBCBmMoUSAvv-35" value="" style="ellipse;whiteSpace=wrap;html=1;fillColor=none;strokeColor=#FF0000;strokeWidth=2;" parent="1" vertex="1">
          <mxGeometry x="510" width="60" height="30" as="geometry" />
        </mxCell>
        <mxCell id="AcgkzLIzpBCBmMoUSAvv-36" value="" style="ellipse;whiteSpace=wrap;html=1;fillColor=none;strokeColor=#FF0000;strokeWidth=2;" parent="1" vertex="1">
          <mxGeometry x="510" y="90" width="60" height="30" as="geometry" />
        </mxCell>
        <mxCell id="xmiN7CabPeekdp6MZh7b-17" value="" style="group" vertex="1" connectable="0" parent="1">
          <mxGeometry x="420" y="40" width="40" height="40" as="geometry" />
        </mxCell>
        <mxCell id="AcgkzLIzpBCBmMoUSAvv-28" value="" style="ellipse;whiteSpace=wrap;html=1;fillColor=none;" parent="xmiN7CabPeekdp6MZh7b-17" vertex="1">
          <mxGeometry width="40" height="40" as="geometry" />
        </mxCell>
        <mxCell id="AcgkzLIzpBCBmMoUSAvv-29" value="" style="ellipse;whiteSpace=wrap;html=1;fillColor=#000000;strokeColor=default;align=center;verticalAlign=middle;fontFamily=Helvetica;fontSize=12;fontColor=default;" parent="xmiN7CabPeekdp6MZh7b-17" vertex="1">
          <mxGeometry x="15" y="15" width="10" height="10" as="geometry" />
        </mxCell>
      </root>
    </mxGraphModel>
  </diagram>
</mxfile>
